# xmcd
#
# Track frame offsets: 
#        150
#        25612
#        40905
#        56285
#        88118
#        94313
#        109535
#        143408
#        159425
#        197442
#
# Disc length: 2905 seconds
#
# Revision: 1
# Processed by: cddbd v1.5.2PL0 Copyright (c) Steve Scherf et al.
# Submitted via: ExactAudioCopy v1.1
#
DISCID=6f0b570a
DTITLE=Douglas Adams - Per Anhalter durch die Galaxis 2 - CD06
DYEAR=2005
DGENRE=Hörspiel
TTITLE0=Der weise Irre und die Botschaft
TTITLE1=Der weise Irre und die Botschaft
TTITLE2=Der weise Irre und die Botschaft
TTITLE3=Der weise Irre und die Botschaft
TTITLE4=Der weise Irre und die Botschaft
TTITLE5=Die Botschaft Gottes an seine Schöpfung
TTITLE6=Die Botschaft Gottes an seine Schöpfung
TTITLE7=Die Botschaft Gottes an seine Schöpfung
TTITLE8=Die Botschaft Gottes an seine Schöpfung
TTITLE9=Die Botschaft Gottes an seine Schöpfung
EXTD=
EXTT0=
EXTT1=
EXTT2=
EXTT3=
EXTT4=
EXTT5=
EXTT6=
EXTT7=
EXTT8=
EXTT9=
PLAYORDER=
